# xmcd CD database file
#
# Track frame offsets:
#	150
#	13350
#	24925
#	44662
#	58900
#	69475
#	83440
#	94425
#	107800
#	123075
#	135565
#	152787
#	164485
#	180290
#	190865
#	202650
#	212837
#	227517
#	238832
#	250307
#
# Disc length: 3468 seconds
#
# Revision: 0
# Processed by: cddbd v1.5.1PL0 Copyright (c) Steve Scherf et al.
# Submitted via: CDex 1.51
#
DISCID=0f0d8a14
DTITLE=Kenny Rogers - At His Best
DYEAR=1900
DGENRE=Country
TTITLE0=Ruby Don't Take Your Love To Town
TTITLE1=Me And Bobby McGee
TTITLE2=Lay It Down
TTITLE3=Loser
TTITLE4=Ticket To Nowhere
TTITLE5=Sunshine
TTITLE6=Always Leaving, Always Gone
TTITLE7=Shine On Ruby Mountain
TTITLE8=Conditions (Just Dropped In)
TTITLE9=Reuben James
TTITLE10=Something's Burning
TTITLE11=What Am I Gonna Do
TTITLE12=For The Good Times
TTITLE13=Goodtime Liberator
TTITLE14=Elvira
TTITLE15=New Design
TTITLE16=All God's Lonely Children
TTITLE17=If Wishes Were Horses
TTITLE18=Girl Get A Hold Of Yourself
TTITLE19=Once Again She's All Alone
EXTD=
EXTT0=
EXTT1=
EXTT2=
EXTT3=
EXTT4=
EXTT5=
EXTT6=
EXTT7=
EXTT8=
EXTT9=
EXTT10=
EXTT11=
EXTT12=
EXTT13=
EXTT14=
EXTT15=
EXTT16=
EXTT17=
EXTT18=
EXTT19=
PLAYORDER=
